<mxfile host="app.diagrams.net" agent="Mozilla/5.0 (Macintosh; Intel Mac OS X 10_15_7) AppleWebKit/605.1.15 (KHTML, like Gecko) Version/18.0 Safari/605.1.15" version="24.7.17">
  <diagram name="Page-1" id="YYRwiA1xToAAdd3JtBlB">
    <mxGraphModel dx="1032" dy="750" grid="1" gridSize="10" guides="1" tooltips="1" connect="1" arrows="1" fold="1" page="1" pageScale="1" pageWidth="827" pageHeight="1169" background="#000000" math="0" shadow="0">
      <root>
        <mxCell id="0" />
        <mxCell id="1" parent="0" />
        <mxCell id="C54k0JOMP-SggSfBIy9h-6" style="edgeStyle=orthogonalEdgeStyle;rounded=0;orthogonalLoop=1;jettySize=auto;html=1;exitX=0;exitY=0.25;exitDx=0;exitDy=0;entryX=0.5;entryY=1;entryDx=0;entryDy=0;strokeColor=#FFFFFF;" parent="1" source="C54k0JOMP-SggSfBIy9h-2" target="C54k0JOMP-SggSfBIy9h-1" edge="1">
          <mxGeometry relative="1" as="geometry" />
        </mxCell>
        <mxCell id="C54k0JOMP-SggSfBIy9h-11" value="Event: User Authorisation Token" style="edgeLabel;html=1;align=center;verticalAlign=middle;resizable=0;points=[];" parent="C54k0JOMP-SggSfBIy9h-6" vertex="1" connectable="0">
          <mxGeometry x="-0.3391" y="2" relative="1" as="geometry">
            <mxPoint as="offset" />
          </mxGeometry>
        </mxCell>
        <mxCell id="C54k0JOMP-SggSfBIy9h-7" style="edgeStyle=orthogonalEdgeStyle;rounded=0;orthogonalLoop=1;jettySize=auto;html=1;exitX=1;exitY=0.5;exitDx=0;exitDy=0;entryX=0.5;entryY=0;entryDx=0;entryDy=0;strokeColor=#FFFFFF;" parent="1" source="C54k0JOMP-SggSfBIy9h-1" target="C54k0JOMP-SggSfBIy9h-2" edge="1">
          <mxGeometry relative="1" as="geometry" />
        </mxCell>
        <mxCell id="C54k0JOMP-SggSfBIy9h-9" value="SSO OIDC" style="edgeLabel;html=1;align=center;verticalAlign=middle;resizable=0;points=[];" parent="C54k0JOMP-SggSfBIy9h-7" vertex="1" connectable="0">
          <mxGeometry x="-0.3333" relative="1" as="geometry">
            <mxPoint as="offset" />
          </mxGeometry>
        </mxCell>
        <mxCell id="C54k0JOMP-SggSfBIy9h-1" value="Thanos Front End" style="whiteSpace=wrap;html=1;aspect=fixed;strokeColor=#FFFFFF;" parent="1" vertex="1">
          <mxGeometry x="230" y="330" width="80" height="80" as="geometry" />
        </mxCell>
        <mxCell id="JhkCNmM65xoXw_irvw-b-1" style="edgeStyle=orthogonalEdgeStyle;rounded=0;orthogonalLoop=1;jettySize=auto;html=1;entryX=0.5;entryY=0;entryDx=0;entryDy=0;strokeColor=#FFFFFF;" edge="1" parent="1" source="C54k0JOMP-SggSfBIy9h-2" target="JhkCNmM65xoXw_irvw-b-6">
          <mxGeometry relative="1" as="geometry">
            <Array as="points">
              <mxPoint x="540" y="580" />
              <mxPoint x="540" y="580" />
            </Array>
          </mxGeometry>
        </mxCell>
        <mxCell id="JhkCNmM65xoXw_irvw-b-2" value="Events #UserProfile:&amp;nbsp;&lt;div&gt;User Profile Created&lt;div&gt;User Profile Updated&lt;/div&gt;&lt;/div&gt;" style="edgeLabel;html=1;align=center;verticalAlign=middle;resizable=0;points=[];" vertex="1" connectable="0" parent="JhkCNmM65xoXw_irvw-b-1">
          <mxGeometry x="-0.478" y="-2" relative="1" as="geometry">
            <mxPoint x="2" y="17" as="offset" />
          </mxGeometry>
        </mxCell>
        <mxCell id="C54k0JOMP-SggSfBIy9h-2" value="Auth0&lt;div&gt;Identity Provider Authentication &amp;amp; Authorisation&lt;/div&gt;" style="whiteSpace=wrap;html=1;aspect=fixed;strokeColor=#FFFFFF;" parent="1" vertex="1">
          <mxGeometry x="490" y="440" width="90" height="90" as="geometry" />
        </mxCell>
        <mxCell id="C54k0JOMP-SggSfBIy9h-3" value="ARIA&lt;div&gt;Subscription Contract &amp;amp; Billing Management&lt;/div&gt;" style="whiteSpace=wrap;html=1;aspect=fixed;strokeColor=#FFFFFF;" parent="1" vertex="1">
          <mxGeometry x="500" y="770" width="80" height="80" as="geometry" />
        </mxCell>
        <mxCell id="C54k0JOMP-SggSfBIy9h-8" style="edgeStyle=orthogonalEdgeStyle;rounded=0;orthogonalLoop=1;jettySize=auto;html=1;exitX=1;exitY=0.25;exitDx=0;exitDy=0;strokeColor=#FFFFFF;dashed=1;dashPattern=8 8;" parent="1" source="C54k0JOMP-SggSfBIy9h-4" target="C54k0JOMP-SggSfBIy9h-2" edge="1">
          <mxGeometry relative="1" as="geometry">
            <Array as="points">
              <mxPoint x="370" y="660" />
              <mxPoint x="370" y="490" />
            </Array>
          </mxGeometry>
        </mxCell>
        <mxCell id="C54k0JOMP-SggSfBIy9h-10" value="API Call: Get Normalised User Profile" style="edgeLabel;html=1;align=center;verticalAlign=middle;resizable=0;points=[];" parent="C54k0JOMP-SggSfBIy9h-8" vertex="1" connectable="0">
          <mxGeometry x="0.0114" y="-4" relative="1" as="geometry">
            <mxPoint as="offset" />
          </mxGeometry>
        </mxCell>
        <mxCell id="JhkCNmM65xoXw_irvw-b-7" style="edgeStyle=orthogonalEdgeStyle;rounded=0;orthogonalLoop=1;jettySize=auto;html=1;exitX=1;exitY=0.5;exitDx=0;exitDy=0;entryX=0;entryY=0.75;entryDx=0;entryDy=0;strokeColor=#FFFFFF;" edge="1" parent="1" source="C54k0JOMP-SggSfBIy9h-4" target="JhkCNmM65xoXw_irvw-b-6">
          <mxGeometry relative="1" as="geometry" />
        </mxCell>
        <mxCell id="JhkCNmM65xoXw_irvw-b-8" value="Event Listener:&amp;nbsp;&lt;div&gt;#UserProfile Topics&lt;/div&gt;" style="edgeLabel;html=1;align=center;verticalAlign=middle;resizable=0;points=[];" vertex="1" connectable="0" parent="JhkCNmM65xoXw_irvw-b-7">
          <mxGeometry x="0.19" y="-2" relative="1" as="geometry">
            <mxPoint as="offset" />
          </mxGeometry>
        </mxCell>
        <mxCell id="C54k0JOMP-SggSfBIy9h-4" value="&lt;div&gt;Iterable&amp;nbsp;&lt;/div&gt;&lt;div&gt;Marketing Automation&lt;/div&gt;" style="whiteSpace=wrap;html=1;aspect=fixed;strokeColor=#FFFFFF;" parent="1" vertex="1">
          <mxGeometry x="230" y="640" width="80" height="80" as="geometry" />
        </mxCell>
        <mxCell id="C54k0JOMP-SggSfBIy9h-14" style="edgeStyle=orthogonalEdgeStyle;rounded=0;orthogonalLoop=1;jettySize=auto;html=1;entryX=0.5;entryY=0;entryDx=0;entryDy=0;strokeColor=#FFFFFF;" parent="1" source="C54k0JOMP-SggSfBIy9h-13" target="C54k0JOMP-SggSfBIy9h-1" edge="1">
          <mxGeometry relative="1" as="geometry" />
        </mxCell>
        <mxCell id="JhkCNmM65xoXw_irvw-b-19" value="anna.andersson@hotmail.com" style="edgeLabel;html=1;align=center;verticalAlign=middle;resizable=0;points=[];" vertex="1" connectable="0" parent="C54k0JOMP-SggSfBIy9h-14">
          <mxGeometry x="0.45" y="3" relative="1" as="geometry">
            <mxPoint as="offset" />
          </mxGeometry>
        </mxCell>
        <mxCell id="C54k0JOMP-SggSfBIy9h-13" value="&lt;font color=&quot;#ffffff&quot;&gt;B2C User&lt;/font&gt;" style="shape=umlActor;verticalLabelPosition=bottom;verticalAlign=top;html=1;outlineConnect=0;strokeColor=#FFFFFF;" parent="1" vertex="1">
          <mxGeometry x="140" y="230" width="30" height="60" as="geometry" />
        </mxCell>
        <mxCell id="JhkCNmM65xoXw_irvw-b-3" value="Segment.io" style="whiteSpace=wrap;html=1;aspect=fixed;strokeColor=#FFFFFF;" vertex="1" parent="1">
          <mxGeometry x="660" y="770" width="80" height="80" as="geometry" />
        </mxCell>
        <mxCell id="JhkCNmM65xoXw_irvw-b-6" value="Event Bridge (AWS) or Kafka (Azure)" style="whiteSpace=wrap;html=1;aspect=fixed;strokeColor=#FFFFFF;" vertex="1" parent="1">
          <mxGeometry x="500" y="620" width="80" height="80" as="geometry" />
        </mxCell>
        <mxCell id="JhkCNmM65xoXw_irvw-b-9" style="edgeStyle=orthogonalEdgeStyle;rounded=0;orthogonalLoop=1;jettySize=auto;html=1;exitX=0.5;exitY=0;exitDx=0;exitDy=0;entryX=1;entryY=0.5;entryDx=0;entryDy=0;strokeColor=#FFFFFF;" edge="1" parent="1" source="JhkCNmM65xoXw_irvw-b-3" target="JhkCNmM65xoXw_irvw-b-6">
          <mxGeometry relative="1" as="geometry">
            <mxPoint x="700" y="679.5" as="sourcePoint" />
            <mxPoint x="890" y="679.5" as="targetPoint" />
          </mxGeometry>
        </mxCell>
        <mxCell id="JhkCNmM65xoXw_irvw-b-10" value="Event Listener:&amp;nbsp;&lt;div&gt;#UserProfile Topics&lt;/div&gt;" style="edgeLabel;html=1;align=center;verticalAlign=middle;resizable=0;points=[];" vertex="1" connectable="0" parent="JhkCNmM65xoXw_irvw-b-9">
          <mxGeometry x="0.19" y="-2" relative="1" as="geometry">
            <mxPoint x="27" y="42" as="offset" />
          </mxGeometry>
        </mxCell>
        <mxCell id="JhkCNmM65xoXw_irvw-b-12" style="edgeStyle=orthogonalEdgeStyle;rounded=0;orthogonalLoop=1;jettySize=auto;html=1;entryX=0.5;entryY=1;entryDx=0;entryDy=0;strokeColor=#FFFFFF;exitX=0.5;exitY=0;exitDx=0;exitDy=0;" edge="1" parent="1" source="C54k0JOMP-SggSfBIy9h-3" target="JhkCNmM65xoXw_irvw-b-6">
          <mxGeometry relative="1" as="geometry">
            <mxPoint x="500" y="740" as="sourcePoint" />
            <mxPoint x="590" y="670" as="targetPoint" />
          </mxGeometry>
        </mxCell>
        <mxCell id="JhkCNmM65xoXw_irvw-b-13" value="Event Listener:&amp;nbsp;&lt;div&gt;#UserProfile Topics&lt;/div&gt;" style="edgeLabel;html=1;align=center;verticalAlign=middle;resizable=0;points=[];" vertex="1" connectable="0" parent="JhkCNmM65xoXw_irvw-b-12">
          <mxGeometry x="0.19" y="-2" relative="1" as="geometry">
            <mxPoint x="-2" y="12" as="offset" />
          </mxGeometry>
        </mxCell>
        <mxCell id="JhkCNmM65xoXw_irvw-b-15" style="edgeStyle=orthogonalEdgeStyle;rounded=0;orthogonalLoop=1;jettySize=auto;html=1;" edge="1" parent="1">
          <mxGeometry relative="1" as="geometry">
            <mxPoint x="650" y="260" as="sourcePoint" />
            <mxPoint x="580" y="410" as="targetPoint" />
          </mxGeometry>
        </mxCell>
        <mxCell id="JhkCNmM65xoXw_irvw-b-17" value="sven.svensson@goteborgenergi.se" style="edgeStyle=orthogonalEdgeStyle;rounded=0;orthogonalLoop=1;jettySize=auto;html=1;entryX=0.5;entryY=0;entryDx=0;entryDy=0;strokeColor=#FFFFFF;" edge="1" parent="1" source="JhkCNmM65xoXw_irvw-b-14" target="JhkCNmM65xoXw_irvw-b-16">
          <mxGeometry x="0.1818" relative="1" as="geometry">
            <mxPoint as="offset" />
          </mxGeometry>
        </mxCell>
        <mxCell id="JhkCNmM65xoXw_irvw-b-14" value="&lt;font color=&quot;#ffffff&quot;&gt;B2B User&lt;/font&gt;" style="shape=umlActor;verticalLabelPosition=bottom;verticalAlign=top;html=1;outlineConnect=0;strokeColor=#FFFFFF;" vertex="1" parent="1">
          <mxGeometry x="590" y="240" width="30" height="60" as="geometry" />
        </mxCell>
        <mxCell id="JhkCNmM65xoXw_irvw-b-18" style="edgeStyle=orthogonalEdgeStyle;rounded=0;orthogonalLoop=1;jettySize=auto;html=1;exitX=0;exitY=0.5;exitDx=0;exitDy=0;entryX=1;entryY=0.5;entryDx=0;entryDy=0;strokeColor=#FFFFFF;startArrow=classic;startFill=1;" edge="1" parent="1" source="JhkCNmM65xoXw_irvw-b-16" target="C54k0JOMP-SggSfBIy9h-2">
          <mxGeometry relative="1" as="geometry" />
        </mxCell>
        <mxCell id="JhkCNmM65xoXw_irvw-b-16" value="Okta Enterprise Adapter" style="whiteSpace=wrap;html=1;aspect=fixed;strokeColor=#FFFFFF;" vertex="1" parent="1">
          <mxGeometry x="630" y="445" width="80" height="80" as="geometry" />
        </mxCell>
      </root>
    </mxGraphModel>
  </diagram>
</mxfile>
